<?xml version="1.0" encoding="iso-8859-1"?>
<!-- Uploaded to: SVG Repo, www.svgrepo.com, Generator: SVG Repo Mixer Tools -->
<svg height="800px" width="800px" version="1.1" id="Layer_1" xmlns="http://www.w3.org/2000/svg" xmlns:xlink="http://www.w3.org/1999/xlink" 
	 viewBox="0 0 512 512" xml:space="preserve">
<g>
	<path style="fill:#2A373E;" d="M46.545,274.391c-5.148,0-9.309-4.161-9.309-9.309v-65.164c0-61.598,50.111-111.709,111.709-111.709
		h121.018c5.148,0,9.309,4.161,9.309,9.309s-4.161,9.309-9.309,9.309H148.945c-51.33,0-93.091,41.761-93.091,93.091v65.164
		C55.855,270.23,51.693,274.391,46.545,274.391"/>
	<path style="fill:#139DB5;" d="M465.531,293.01c0-69.604-124.118-95.251-158.711-101.041c-5.902-0.987-11.804-0.987-17.706,0
		c-34.583,5.79-158.711,31.437-158.711,101.041c0,0-2.327,70.395,18.618,93.091h148.945h148.945
		C467.858,363.405,465.531,293.01,465.531,293.01"/>
	<path style="fill:#A4E7F0;" d="M149.02,423.337h297.891V386.1H149.02V423.337z"/>
	<path style="fill:#139DB5;" d="M456.222,460.573H139.713l9.309-37.236h297.891L456.222,460.573z"/>
	<path style="fill:#425B67;" d="M269.964,134.755h55.855V60.282h-55.855V134.755z"/>
	<path style="fill:#2A373E;" d="M307.2,106.828h18.618V88.21H307.2V106.828z"/>
	<g>
		<path style="fill:#139DB5;" d="M390.982,116.137h-9.309c-5.148,0-9.309-4.161-9.309-9.309s4.161-9.309,9.309-9.309h9.309
			c5.148,0,9.309,4.161,9.309,9.309S396.13,116.137,390.982,116.137 M428.218,116.137h-9.309c-5.148,0-9.309-4.161-9.309-9.309
			s4.161-9.309,9.309-9.309h9.309c5.148,0,9.309,4.161,9.309,9.309S433.366,116.137,428.218,116.137 M465.455,116.137h-9.309
			c-5.148,0-9.309-4.161-9.309-9.309s4.161-9.309,9.309-9.309h9.309c5.148,0,9.309,4.161,9.309,9.309
			S470.602,116.137,465.455,116.137 M502.691,116.137h-9.309c-5.148,0-9.309-4.161-9.309-9.309s4.161-9.309,9.309-9.309h9.309
			c5.148,0,9.309,4.161,9.309,9.309S507.839,116.137,502.691,116.137"/>
		<path style="fill:#139DB5;" d="M454.364,72.055c-4.273,0-8.118-2.951-9.086-7.289c-1.108-5.018,2.057-9.989,7.075-11.115
			l9.095-2.011c5.018-1.08,9.998,2.048,11.106,7.066c1.108,5.018-2.057,9.998-7.075,11.115l-9.086,2.02
			C455.714,71.98,455.034,72.055,454.364,72.055 M418.012,80.126c-4.273,0-8.117-2.951-9.086-7.289
			c-1.108-5.018,2.057-9.989,7.075-11.106l9.086-2.02c5.027-1.061,9.998,2.057,11.115,7.075c1.108,5.018-2.057,9.989-7.075,11.106
			l-9.095,2.02C419.352,80.051,418.682,80.126,418.012,80.126 M381.66,88.206c-4.264,0-8.118-2.951-9.076-7.289
			c-1.108-5.018,2.057-9.989,7.075-11.106l9.086-2.02c4.999-1.052,9.989,2.057,11.115,7.075c1.108,5.018-2.057,9.989-7.075,11.106
			l-9.095,2.02C383.009,88.141,382.339,88.206,381.66,88.206"/>
		<path style="fill:#139DB5;" d="M390.772,146.082c-0.67,0-1.35-0.074-2.029-0.214l-9.086-2.02
			c-5.018-1.117-8.183-6.097-7.075-11.115c1.117-5.018,6.107-8.127,11.106-7.066l9.095,2.011c5.018,1.126,8.183,6.097,7.075,11.115
			C398.89,143.131,395.036,146.082,390.772,146.082 M427.115,154.163c-0.67,0-1.341-0.074-2.02-0.214l-9.095-2.02
			c-5.018-1.117-8.183-6.088-7.075-11.106c1.117-5.018,6.116-8.136,11.115-7.075l9.086,2.02c5.018,1.117,8.183,6.088,7.075,11.106
			C435.233,151.212,431.379,154.163,427.115,154.163 M463.476,162.234c-0.68,0-1.35-0.065-2.029-0.214l-9.095-2.02
			c-5.018-1.117-8.183-6.088-7.075-11.106c1.126-5.018,6.125-8.136,11.115-7.075l9.086,2.02c5.018,1.117,8.183,6.088,7.075,11.106
			C471.594,159.283,467.74,162.234,463.476,162.234"/>
	</g>
	<g>
		<path style="fill:#2A373E;" d="M265.985,196.493c20.573-7.094,42.84-7.121,63.432-0.121c4.682,1.033,9.728,2.234,15.016,3.584
			v-57.251c0-4.394-3.556-7.95-7.95-7.95h-77.191c-4.385,0-7.95,3.556-7.95,7.95v57.297
			C256.499,198.671,261.405,197.508,265.985,196.493"/>
		<path style="fill:#2A373E;" d="M93.091,362.828c0,53.983-20.843,97.745-46.545,97.745S0,416.811,0,362.828
			s20.843-97.745,46.545-97.745S93.091,308.844,93.091,362.828"/>
	</g>
</g>
</svg>